<svg xmlns="http://www.w3.org/2000/svg" viewBox="0 0 64 64">
  <rect width="64" height="64" rx="14" fill="#0b1118"/>
  <g fill="none" stroke-linecap="round" stroke-linejoin="round">
    <path
      d="M31.5 31.8
         C24 28.5 18.4 23.4 18.4 18.1
         C18.4 12.7 22.4 9.5 27.7 9.5
         C33.3 9.5 37.1 13.7 37.1 19
         C37.1 24.7 33.1 28.9 27.1 33
         C21 37.3 17.6 41.3 17.6 46.2
         C17.6 52 21.7 55.2 27 55.2
         C33.1 55.2 37.2 50.8 37.2 44.8
         C37.2 39.6 34.8 35.8 31.5 31.8"
      stroke="#33ccb3"
      stroke-opacity=".18"
      stroke-width="1.4"
    />
    <path
      d="M32.5 31.8
         C40 28.5 45.6 23.4 45.6 18.1
         C45.6 12.7 41.6 9.5 36.3 9.5
         C30.7 9.5 26.9 13.7 26.9 19
         C26.9 24.7 30.9 28.9 36.9 33
         C43 37.3 46.4 41.3 46.4 46.2
         C46.4 52 42.3 55.2 37 55.2
         C30.9 55.2 26.8 50.8 26.8 44.8
         C26.8 39.6 29.2 35.8 32.5 31.8"
      stroke="#33ccb3"
      stroke-opacity=".18"
      stroke-width="1.4"
    />
    <path
      d="M31.8 31.6
         C23.6 28.6 17.8 23 17.8 17.4
         C17.8 11.7 22.4 8.4 28 8.4
         C34 8.4 38.4 12.8 38.4 18.7
         C38.4 24.5 34.4 29 28.1 33.2
         C21.6 37.6 18 41.8 18 47
         C18 52.8 22.7 56 28.2 56
         C34.1 56 38.6 51.4 38.6 45.1
         C38.6 39.5 35.9 35.2 31.8 31.6"
      stroke="#33ccb3"
      stroke-opacity=".4"
      stroke-width="2"
    />
    <path
      d="M32.2 31.6
         C40.4 28.6 46.2 23 46.2 17.4
         C46.2 11.7 41.6 8.4 36 8.4
         C30 8.4 25.6 12.8 25.6 18.7
         C25.6 24.5 29.6 29 35.9 33.2
         C42.4 37.6 46 41.8 46 47
         C46 52.8 41.3 56 35.8 56
         C29.9 56 25.4 51.4 25.4 45.1
         C25.4 39.5 28.1 35.2 32.2 31.6"
      stroke="#33ccb3"
      stroke-opacity=".4"
      stroke-width="2"
    />
    <path
      d="M32 31.5
         C22.8 28.8 16.8 22.8 16.8 16.7
         C16.8 10.5 21.8 7 28.2 7
         C34.9 7 39.6 12 39.6 18.4
         C39.6 24.8 35.1 29.4 28.8 33.6
         C22 38.1 18.6 42.1 18.6 47.2
         C18.6 53.2 23.1 57 28.9 57
         C35.5 57 40 52.2 40 45.5
         C40 39.5 36.8 35 32 31.5
         C27.2 27.4 24.2 23.4 24.2 19
         C24.2 14.5 27.1 11.4 31.3 11.4
         C35.6 11.4 38.8 14.8 38.8 19.1"
      stroke="#6de6d1"
      stroke-width="2.8"
    />
    <path
      d="M32 31.5
         C41.2 28.8 47.2 22.8 47.2 16.7
         C47.2 10.5 42.2 7 35.8 7
         C29.1 7 24.4 12 24.4 18.4
         C24.4 24.8 28.9 29.4 35.2 33.6
         C42 38.1 45.4 42.1 45.4 47.2
         C45.4 53.2 40.9 57 35.1 57
         C28.5 57 24 52.2 24 45.5
         C24 39.5 27.2 35 32 31.5
         C36.8 27.4 39.8 23.4 39.8 19
         C39.8 14.5 36.9 11.4 32.7 11.4
         C28.4 11.4 25.2 14.8 25.2 19.1"
      stroke="#33ccb3"
      stroke-width="2.8"
    />
    <circle cx="31.8" cy="31.6" r="1.9" fill="#6de6d1" stroke="none"/>
    <circle cx="32.2" cy="31.6" r="1.1" fill="#33ccb3" stroke="none"/>
  </g>
</svg>
